<svg width="114" height="82" viewBox="0 0 114 82" fill="none" xmlns="http://www.w3.org/2000/svg">
<path fill-rule="evenodd" clip-rule="evenodd" d="M56.691 11.9059C66.6356 12.7907 77.2493 2.41388 85.6241 7.83729C93.9246 13.2125 89.1986 26.7315 93.3936 35.674C98.5883 46.7472 117.334 54.4061 112.799 65.7639C108.131 77.452 89.4361 72.4093 77.325 75.9115C70.2642 77.9533 64.0376 82.2499 56.691 81.9886C49.5243 81.7337 43.9851 76.478 37.0989 74.4806C24.8036 70.9142 3.04619 78.2909 0.664912 65.7375C-1.87581 52.3435 25.7116 51.8544 30.3765 39.0419C34.7379 27.0627 14.8675 11.492 23.7497 2.33259C31.9019 -6.07415 45.0137 10.8671 56.691 11.9059Z" fill="#0039BC"/>
</svg>
